<?xml version="1.0" encoding="UTF-8"?>
<svg width="24px" height="24px" viewBox="0 0 24 24" version="1.1" xmlns="http://www.w3.org/2000/svg">
    <title>계산기</title>
    <g stroke="none" stroke-width="1" fill="none" fill-rule="evenodd">
        <rect fill="#FFFFFF" x="0" y="0" width="24" height="24"></rect>
        <path d="M4,2 L20,2 C21.1045695,2 22,2.8954305 22,4 L22,20 C22,21.1045695 21.1045695,22 20,22 L4,22 C2.8954305,22 2,21.1045695 2,20 L2,4 C2,2.8954305 2.8954305,2 4,2 Z" stroke="#000000" stroke-width="2"></path>
        <rect fill="#000000" x="5" y="5" width="14" height="3" rx="0.5"></rect>
        <circle fill="#000000" cx="7.5" cy="12.5" r="1.5"></circle>
        <circle fill="#000000" cx="12" cy="12.5" r="1.5"></circle>
        <circle fill="#000000" cx="16.5" cy="12.5" r="1.5"></circle>
        <circle fill="#000000" cx="7.5" cy="17" r="1.5"></circle>
        <circle fill="#000000" cx="12" cy="17" r="1.5"></circle>
        <circle fill="#000000" cx="16.5" cy="17" r="1.5"></circle>
    </g>
</svg>
